M48
; DRILL file {KiCad (5.1.5)-3} date 18.4.2020. 11:44:13
; FORMAT={-:-/ absolute / inch / decimal}
; #@! TF.CreationDate,2020-04-18T11:44:13+02:00
; #@! TF.GenerationSoftware,Kicad,Pcbnew,(5.1.5)-3
; #@! TF.FileFunction,Plated,1,2,PTH
FMAT,2
INCH
T1C0.0157
T2C0.0394
T3C0.0591
T4C0.1378
%
G90
G05
T1
X2.3004Y-2.5724
X2.6838Y-4.7356
X3.0147Y-4.2011
X3.0543Y-4.5286
X3.4259Y-4.25
X3.5318Y-3.1546
X3.6399Y-4.5934
X3.6801Y-4.4777
X3.7584Y-4.728
X3.7714Y-4.6606
X3.7795Y-4.0817
X3.7881Y-4.7584
X4.0289Y-1.8997
X4.1154Y-5.1995
X4.3724Y-3.9665
X4.483Y-4.5342
X4.6989Y-3.1438
X4.7063Y-2.664
X4.8681Y-4.2
X4.9245Y-2.5043
T2
X1.25Y-4.375
X1.25Y-5.275
X1.35Y-4.375
X1.35Y-5.275
X1.45Y-4.375
X1.45Y-5.275
X1.55Y-4.375
X1.55Y-5.275
X1.65Y-4.375
X1.65Y-5.275
X1.75Y-4.375
X1.75Y-5.275
X1.85Y-4.375
X1.85Y-5.275
X1.95Y-4.375
X1.95Y-5.275
X1.25Y-3.225
X1.25Y-4.125
X1.35Y-3.225
X1.35Y-4.125
X1.45Y-3.225
X1.45Y-4.125
X1.55Y-3.225
X1.55Y-4.125
X1.65Y-3.225
X1.65Y-4.125
X1.75Y-3.225
X1.75Y-4.125
X1.85Y-3.225
X1.85Y-4.125
X1.95Y-3.225
X1.95Y-4.125
X5.025Y-1.75
X5.025Y-1.85
X5.025Y-1.95
X5.025Y-2.05
X5.025Y-2.15
X5.025Y-2.25
X5.025Y-2.35
X5.025Y-2.45
X5.925Y-1.75
X5.925Y-1.85
X5.925Y-1.95
X5.925Y-2.05
X5.925Y-2.15
X5.925Y-2.25
X5.925Y-2.35
X5.925Y-2.45
X2.65Y-6.3
X2.75Y-6.3
X2.85Y-6.3
X2.95Y-6.3
X3.875Y-1.75
X3.875Y-1.85
X3.875Y-1.95
X3.875Y-2.05
X3.875Y-2.15
X3.875Y-2.25
X3.875Y-2.35
X3.875Y-2.45
X4.775Y-1.75
X4.775Y-1.85
X4.775Y-1.95
X4.775Y-2.05
X4.775Y-2.15
X4.775Y-2.25
X4.775Y-2.35
X4.775Y-2.45
X1.575Y-1.75
X1.575Y-1.85
X1.575Y-1.95
X1.575Y-2.05
X1.575Y-2.15
X1.575Y-2.25
X1.575Y-2.35
X1.575Y-2.45
X2.475Y-1.75
X2.475Y-1.85
X2.475Y-1.95
X2.475Y-2.05
X2.475Y-2.15
X2.475Y-2.25
X2.475Y-2.35
X2.475Y-2.45
X5.55Y-4.375
X5.55Y-5.275
X5.65Y-4.375
X5.65Y-5.275
X5.75Y-4.375
X5.75Y-5.275
X5.85Y-4.375
X5.85Y-5.275
X5.95Y-4.375
X5.95Y-5.275
X6.05Y-4.375
X6.05Y-5.275
X6.15Y-4.375
X6.15Y-5.275
X6.25Y-4.375
X6.25Y-5.275
X3.55Y-6.3
X3.65Y-6.3
X3.75Y-6.3
X3.85Y-6.3
X3.95Y-6.3
X5.55Y-3.225
X5.55Y-4.125
X5.65Y-3.225
X5.65Y-4.125
X5.75Y-3.225
X5.75Y-4.125
X5.85Y-3.225
X5.85Y-4.125
X5.95Y-3.225
X5.95Y-4.125
X6.05Y-3.225
X6.05Y-4.125
X6.15Y-3.225
X6.15Y-4.125
X6.25Y-3.225
X6.25Y-4.125
X2.725Y-1.75
X2.725Y-1.85
X2.725Y-1.95
X2.725Y-2.05
X2.725Y-2.15
X2.725Y-2.25
X2.725Y-2.35
X2.725Y-2.45
X3.625Y-1.75
X3.625Y-1.85
X3.625Y-1.95
X3.625Y-2.05
X3.625Y-2.15
X3.625Y-2.25
X3.625Y-2.35
X3.625Y-2.45
X4.55Y-6.3
X4.65Y-6.3
X4.75Y-6.3
X4.85Y-6.3
X2.85Y-3.65
X2.85Y-3.75
X2.85Y-3.85
X2.85Y-3.95
X2.85Y-4.05
X2.85Y-4.15
X2.85Y-4.25
X2.85Y-4.35
X2.85Y-4.45
X2.85Y-4.55
X2.85Y-4.65
X2.85Y-4.75
X2.85Y-4.85
X2.95Y-3.65
X2.95Y-3.75
X2.95Y-3.85
X2.95Y-3.95
X2.95Y-4.05
X2.95Y-4.15
X2.95Y-4.25
X2.95Y-4.35
X2.95Y-4.45
X2.95Y-4.55
X2.95Y-4.65
X2.95Y-4.75
X2.95Y-4.85
X3.15Y-3.35
X3.15Y-3.45
X3.15Y-5.05
X3.15Y-5.15
X3.25Y-3.35
X3.25Y-3.45
X3.25Y-5.05
X3.25Y-5.15
X3.35Y-3.35
X3.35Y-3.45
X3.35Y-5.05
X3.35Y-5.15
X3.45Y-3.35
X3.45Y-3.45
X3.45Y-5.05
X3.45Y-5.15
X3.55Y-3.35
X3.55Y-3.45
X3.55Y-5.05
X3.55Y-5.15
X3.65Y-3.35
X3.65Y-3.45
X3.65Y-5.05
X3.65Y-5.15
X3.75Y-3.35
X3.75Y-3.45
X3.75Y-5.05
X3.75Y-5.15
X3.85Y-3.35
X3.85Y-3.45
X3.85Y-5.05
X3.85Y-5.15
X3.95Y-3.35
X3.95Y-3.45
X3.95Y-5.05
X3.95Y-5.15
X4.05Y-3.35
X4.05Y-3.45
X4.05Y-5.05
X4.05Y-5.15
X4.15Y-3.35
X4.15Y-3.45
X4.15Y-5.05
X4.15Y-5.15
X4.25Y-3.35
X4.25Y-3.45
X4.25Y-5.05
X4.25Y-5.15
X4.35Y-3.35
X4.35Y-3.45
X4.35Y-5.05
X4.35Y-5.15
X4.55Y-3.65
X4.55Y-3.75
X4.55Y-3.85
X4.55Y-3.95
X4.55Y-4.05
X4.55Y-4.15
X4.55Y-4.25
X4.55Y-4.35
X4.55Y-4.45
X4.55Y-4.55
X4.55Y-4.65
X4.55Y-4.75
X4.55Y-4.85
X4.65Y-3.65
X4.65Y-3.75
X4.65Y-3.85
X4.65Y-3.95
X4.65Y-4.05
X4.65Y-4.15
X4.65Y-4.25
X4.65Y-4.35
X4.65Y-4.45
X4.65Y-4.55
X4.65Y-4.65
X4.65Y-4.75
X4.65Y-4.85
T3
X1.6Y-6.255
X1.8Y-6.255
X2.0Y-6.255
X2.2Y-6.255
X5.3Y-6.255
X5.5Y-6.255
X5.7Y-6.255
X5.9Y-6.255
T4
X6.3Y-1.7
X1.2Y-1.7
X6.3Y-6.3
X1.2Y-6.3
T0
M30
